<svg xmlns="http://www.w3.org/2000/svg" width="2560" height="1440">
  <defs>
    <clipPath id="a">
      <path d="M0 1080h1920V0H0z"/>
    </clipPath>
  </defs>
  <path fill="#071a2c" d="M999.3 764.7l-58.7-115h42.3l35.2 75.2h1.3l35.9-75.1h38.2L1035 764.5v67.3h-35.7zm132.9-1.8h39l-18.4-60.9h-2.4zm46 28.6H1124l-12.5 40.3h-35.6l58.8-182h35.6l58.5 182h-37.4z"/>
  <g fill="#071a2c" clip-path="url(#a)" transform="matrix(1.33333 0 0 -1.33333 0 1440)">
    <path d="M975.8 570.8c-2.7 0-5.4 0-8.1-.2a24 24 0 0 1-6.2-.7v-39.6h10.6c7.4 0 13.4 1.7 18.1 5 4.7 3.4 7 9 7 16.8a18 18 0 0 1-5.4 13.8c-3.7 3.3-9 5-16 5m-41 20.4a246.6 246.6 0 0 0 39 3.3c6.4 0 12.7-.6 18.9-1.8a50.3 50.3 0 0 0 16.5-6.4 33.7 33.7 0 0 0 16.1-31c0-5.6-.5-10.4-1.6-14.5a40 40 0 0 0-4.6-10.8c-2-3.2-4.3-5.9-7.1-8.1a63.4 63.4 0 0 0-9.1-6.2l33-59.7H1005l-27.5 53.5h-16V456h-26.7zm137.2-54.4h-1l1.1-16.2v-64.6h-25.3v136.6h23.4l47.2-83.5h1l-1.8 16.4v67h25.4V456.2h-23.4zm166.2-18.1h-61.3V456h-16.2v136.6h16.2v-59.5h61.3v59.5h16.1V456h-16.1zm54.2 5.6c0-7.5.5-14.7 1.4-21.4a61 61 0 0 1 5.2-17.9 33 33 0 0 1 9.8-12.3c4-3 9.2-4.6 15.5-4.6a26 26 0 0 1 24.5 13.7c5.2 9 7.8 23.3 7.8 42.5 0 7.4-.5 14.5-1.5 21.4-1 6.8-2.7 12.8-5.2 18a32.2 32.2 0 0 1-10 12.2c-4.2 3-9.4 4.6-15.6 4.6a25.8 25.8 0 0 1-24.3-13.8c-5-9.1-7.6-23.3-7.6-42.4m-17 0c0 22.6 4 40 12 52.3 8 12.2 20.3 18.3 36.9 18.3 9 0 16.7-1.7 23-5a40.5 40.5 0 0 0 15.3-14.4 64.6 64.6 0 0 0 8.4-22.2c1.7-8.7 2.5-18.3 2.5-29 0-22.6-4-40-12-52.3-8-12.2-20.4-18.3-37.2-18.3a48 48 0 0 0-22.8 5 40.6 40.6 0 0 0-15.2 14.4 64.5 64.5 0 0 0-8.4 22.2c-1.7 8.7-2.5 18.3-2.5 29m134 0c0-7.5.5-14.7 1.5-21.4a61 61 0 0 1 5.2-17.9 33 33 0 0 1 9.8-12.3c4-3 9.2-4.6 15.4-4.6 11.2 0 19.4 4.6 24.6 13.7 5.1 9 7.7 23.3 7.7 42.5 0 7.4-.5 14.5-1.5 21.4-1 6.8-2.7 12.8-5.2 18a32.2 32.2 0 0 1-10 12.2c-4.1 3-9.3 4.6-15.6 4.6-11 0-19.2-4.6-24.3-13.8-5-9.1-7.6-23.3-7.6-42.4m-17 0c0 22.6 4 40 12 52.3 8 12.2 20.3 18.3 37 18.3 9 0 16.7-1.7 23-5a40.5 40.5 0 0 0 15.3-14.4 64.6 64.6 0 0 0 8.3-22.2 151 151 0 0 0 2.6-29c0-22.6-4-40-12-52.3-8-12.2-20.4-18.3-37.3-18.3-9 0-16.5 1.7-22.8 5a40.6 40.6 0 0 0-15.1 14.4 64.5 64.5 0 0 0-8.4 22.2 151 151 0 0 0-2.6 29m151.6-5.1h-15v-63.2h-16.2v136.6h16.2v-60.9h14.6l44 60.9h18.6l-48.1-65 54.2-71.6h-20.5zM512.8 648.8l-18.3-56-.8.9-.2 58.6a5.3 5.3 0 0 0 6.4 5.2l9-1.9a5.2 5.2 0 0 0 3.5-2.5c.8-1.3 1-2.8.4-4.3m-41-33.4l-.7 39.7a5.3 5.3 0 0 0 5.7 5.4l7.5-.7a5.3 5.3 0 0 0 4.8-5.2v-2.3l.2-54.3zM450 637v.7l-.2 9.6v4.5a5.3 5.3 0 0 0 3.9 5.3l6.3 1.7c1.6.4 3.2 0 4.6-.9 1.3-1 2-2.5 2-4.1l.6-33.9zm-14.2 14.2l2.6.9a5.2 5.2 0 0 0 7-4.9l.2-5.8zm80.3 4.2a9.7 9.7 0 0 1-6.4 4.6l-9 1.9a9.6 9.6 0 0 1-8.5-2.4 9.6 9.6 0 0 1-7.7 4.8l-7.4.6a9.7 9.7 0 0 1-8.9-4.4 9.7 9.7 0 0 1-9.4 2.5l-6.3-1.7a9.7 9.7 0 0 1-6.7-6.3h-.1a9.6 9.6 0 0 1-8.8 1.2l-5.9-2a2.2 2.2 0 0 1-.8-3.7l63.6-63.2a2.2 2.2 0 0 1 3.6.9l19.5 59.3c.9 2.7.6 5.5-.8 7.9"/>
    <path d="M487 570l-71.5 71a7.1 7.1 0 0 0-2 6.3 7.1 7.1 0 0 0 4 5.3l2.5 1.2a7.2 7.2 0 0 0 8.2-1.4l64.7-64.2zm-7.4-22.6l-83.5 83a7.2 7.2 0 0 0 1.1 11l2 1.4a7.2 7.2 0 0 0 9-.9l76.6-76 .7-.4zm-7.6-23.3L382.5 614l-2.6 2.5a7.2 7.2 0 0 0-.1 10l1.6 1.8a7.2 7.2 0 0 0 10.4.2l1.2-1.2 84.6-84 .5-.4zm-7.3-22.4l-97.1 96a7.2 7.2 0 0 0-1.3 8.6l1.6 3a7.1 7.1 0 0 0 6.4 3.7 7 7 0 0 0 5-2l90.9-91.3.3-.3zm-8-24.5L357 575.6a7.2 7.2 0 0 0-1.5 8.1l2 4.3a7.1 7.1 0 0 0 6.5 4.2 7 7 0 0 0 5-2l93.5-92.6.7-.4zm40.2 113.2l-65.7 65.1a11.6 11.6 0 0 1-13 2.3l-2.6-1.2a11.6 11.6 0 0 1-6.6-9.8 11.4 11.4 0 0 1-12.2-.4l-2-1.3a11.5 11.5 0 0 1-5.2-10.5 11.7 11.7 0 0 1-11.4-3.3l-1.6-1.8c-3.2-3.4-4-8-2.4-12l-1.6-.2c-3.7-.5-6.8-2.7-8.5-6l-1.6-2.9c-2-3.8-1.8-8.3.4-11.8l-1-.2c-3.7-.7-6.9-3.1-8.4-6.6l-2-4.2c-2-4.4-1-9.7 2.4-13.1L456 471.6a2.2 2.2 0 0 1 3.6.9L497.5 588c.3.9 0 1.8-.6 2.4"/>
    <path d="M399.7 524.8l-6-6.2-1 .2-39.8-.7h-1.3c-1.4 0-2.7.5-3.6 1.5-1 1-1.4 2.3-1.3 3.6l.5 8a4.9 4.9 0 0 0 4.8 4.6h2.9l35.5.2h.5l8.7-8.4c.8-.8.8-2 0-2.8m-27-28a2 2 0 0 1-1.6.7l-15.6-.9a4.9 4.9 0 0 0-5 3.6l-2 7.4a4.8 4.8 0 0 0 4.6 6.1l36.6.7zm-11.6-12a2 2 0 0 0-3 .3 5 5 0 0 0-.3 4.9 4.8 4.8 0 0 0 4 2.6l7.1.4zm-10.8 61.6l2.7 9a4.7 4.7 0 0 0 4.3 3.4l5.7.4 4.1.2 19.5-19-31.7-.2c-1.5 0-2.9.7-3.8 2a4.8 4.8 0 0 0-.8 4.2m7.4 22.2l5.2-5h-.1c-1.7-.2-3.2.5-4.2 1.9-.6.9-1 2-1 3m45.2-37.8l-44.6 43.6a2.2 2.2 0 0 1-3.6-.9l-.7-1.9a9.1 9.1 0 0 1 1.2-8.6c-3-.9-5.4-3.2-6.4-6.3l-2.6-9a9.1 9.1 0 0 1 1.8-8.5 9.3 9.3 0 0 1-5-7.6l-.5-8a9.3 9.3 0 0 1 4.1-8.3l-.7-.8a9.2 9.2 0 0 1-1.5-8l2-7.4c1-3.6 4.1-6.3 7.8-6.7l-.1-.3a9 9 0 0 1 .3-9.1 6.3 6.3 0 0 1 10-1l38.6 39.9a6.4 6.4 0 0 1-.1 9"/>
    <path d="M404.2 522.3a2 2 0 0 1-1.4-.6L362.2 480a6.1 6.1 0 0 1-1-7l1-2a6 6 0 0 1 4.4-3.2 6 6 0 0 1 5.2 1.6l43.8 42.5-10 10a2 2 0 0 1-1.4.5m-29.3-56.1l-2.9-2.8a6.2 6.2 0 0 1-.7-8l1.9-2.6a6.1 6.1 0 0 1 9.1-.8l48 45.3-11.5 11.4-43.9-42.5m58.5 28l-49-46.4a6.1 6.1 0 0 1-.5-8.5l4.1-4.6a6 6 0 0 1 8.9-.3l48.9 47.5zm15.5-15.4L401 432.3a6 6 0 0 1 1-9.5l8.6-5.6a2 2 0 0 1 2.4.2l33.6 35c.3.3.7.6 1 .6l7 18.4a2 2 0 0 1-.4 2zm-19.5-69c1-.3 2 .2 2.4 1.2l12.3 32.4-25.7-27a2 2 0 0 1-.6-1.8 2 2 0 0 1 1.2-1.4zm.6-4.5c-.7 0-1.3.1-2 .4l-10.5 3.4c-1.8.7-3 2-3.7 3.7a6.4 6.4 0 0 0-5.5.7l-8.6 5.6a10.4 10.4 0 0 0-4.8 9.3 10.6 10.6 0 0 0-10.2 3.4l-4 4.6a10.5 10.5 0 0 0-2.4 9.5h-1.1a11 11 0 0 0-7.6 4.3l-1.8 2.6a10.6 10.6 0 0 0-1.1 10.5h-.8c-3.4.6-6.1 2.7-7.7 5.7l-1 1.9c-2 4-1.2 8.8 1.9 12l40.5 41.9a6.3 6.3 0 0 0 9 0l41.8-41.3v-.1l7-6.9a6.4 6.4 0 0 0 1.5-6.5l-23-60.6a6.3 6.3 0 0 0-5.9-4m172.2 69.4l-2.6-5a5.8 5.8 0 0 0-9-1.8l-13.2 11.5 6.4 18.5 17.2-16.3a5.9 5.9 0 0 0 1.2-7M591.3 455l-3.6-5.6a5.8 5.8 0 0 0-9-1.2l-9.2 8.7 6.4 18.3 11.8-10.4 2.5-2.2a5.9 5.9 0 0 0 1.1-7.6m-14.5-19.2l-3.6-3.6a5.8 5.8 0 0 0-8.1 0l-3 2.9-.2.1 6 17.2 8.8-8.2a5.8 5.8 0 0 0 1.8-4.2c0-1.6-.6-3.1-1.7-4.2m-15.6-9.4a5.8 5.8 0 0 0-3.2-4.3l-.8-.4 3.1 8.8c.8-1.2 1.1-2.6.9-4m42.8 58.4l-19.6 18.7a2.2 2.2 0 0 1-3.6-.9L551.3 418a2.2 2.2 0 0 1 3-2.7l5.7 2.9a10.1 10.1 0 0 1 5.6 8.6c3.6-1.3 7.8-.6 10.7 2.3l3.6 3.5a10.1 10.1 0 0 1 2.8 9.7 10.2 10.2 0 0 1 8.7 4.7l3.6 5.7c2 3 2 6.6.7 9.7h.7c3 .7 5.7 2.6 7.1 5.5l2.6 5c2 4 1.2 9-2 12"/>
    <path d="M613.9 520a2 2 0 0 0-1.5-.8h-1l-20-.6 6.4 16.8h.4l12 2.4a2 2 0 0 0 2.3-1.6l1.8-14.8c0-.5 0-1-.4-1.5m-.5-7.6l-3.8-13.6a2 2 0 0 0-1.8-1.4l-15.1-1h-.4l-5.9 5.4a2 2 0 0 0-.5 2.1l3.9 10.3h.2l21.5.7a2 2 0 0 0 1.6-.7 2 2 0 0 0 .3-1.8m-10.3-26.1l-6.4 6 10.3.6zm2.2 69a1.9 1.9 0 0 0 2 1.3c.3 0 1.4-.2 1.7-1.6l2.1-10.4a2 2 0 0 0-1.5-2.3l-10-2zm11.9-38.1a6.4 6.4 0 0 1 1.5 4.9l-1.8 14.7c-.2 1.6-1 3-2.3 4a6 6 0 0 1 .8 4.7l-2 10.4a6.3 6.3 0 0 1-5.8 5 6.3 6.3 0 0 1-6.4-4l-19.4-51.4a6.4 6.4 0 0 1 1.6-6.9l18.7-17.4a2.2 2.2 0 0 1 3.4.5l7.3 12.6c.3.5.4 1 .2 1.6.4.5.6 1.1.8 1.7l3.8 13.6c.6 2 .2 3.9-1 5.4l.6.6"/>
    <path d="M610.3 580.7l-62.5-172a4.9 4.9 0 0 0-3-3l-9.1-3a4.8 4.8 0 0 0-5 1.2 4.8 4.8 0 0 0-1.2 5l64 187.2a4.8 4.8 0 0 0 4.7 3.3 5 5 0 0 0 4.2-2.3l7.5-12.1c.8-1.3 1-2.9.4-4.3m-88.3-180c-.6-1.7-2-3-3.9-3.2l-8.5-1.3c-1.7-.3-3.4.3-4.5 1.7a4.9 4.9 0 0 0-.9 4.8l75.6 213c.6 1.7 2 3 3.7 3.2 1.8.4 3.5-.3 4.7-1.6l3.9-4.7a5 5 0 0 0 .8-4.7zm-28.5-6.8l-8-1c-1.8-.1-3.4.5-4.4 1.9a4.7 4.7 0 0 0-.8 4.7L560.8 633a4.9 4.9 0 0 0 4.6 3.3c1 0 2-.3 3-1l7.9-5.8a5 5 0 0 0 1.7-5.6l-2.4-6.7-75.5-213-2.5-7a5 5 0 0 0-4-3.3m-24.4-1.6l-7.4.6a4.9 4.9 0 0 0-4.2 6.5l5 14.5 79.8 232a5 5 0 0 0 7.4 2.4l6.3-4.3a5 5 0 0 0 2-5.6l-1.4-4L476 401l-1.8-5.4a4.9 4.9 0 0 0-5.1-3.2m-19.7 2.2l-12.4 2.6c-.3 0-1 .6-1.8 2-.7 1.2-.9 2.4-.8 2.8l87.7 256.3c.2.5.7.8 1.2.6l15.1-4.3a2 2 0 0 0 1.3-2.5l-1.6-4.7L453.4 401l-1.7-5a2 2 0 0 0-2.3-1.4m164 192.8l-7.4 12a9.2 9.2 0 0 1-10 4.2l1 3c1 3 .4 6.4-1.7 9l-3.9 4.6a9.2 9.2 0 0 1-8.8 3.1h-.3c1 3.6-.4 7.6-3.5 9.9l-8 5.8a9.2 9.2 0 0 1-8.3 1.3c0 3-1.5 5.7-4 7.4l-6.4 4.4a9.2 9.2 0 0 1-8 1.1 6.3 6.3 0 0 1-4.4 5.6l-15.2 4.3c-2.7.8-5.6-.7-6.5-3.4l-87.7-256.3c-.6-1.8-.2-4.2 1.1-6.4.6-1 2.2-3.5 4.7-4l12.3-2.6a6.3 6.3 0 0 1 6.2 2c1.6-2 4-3.5 6.7-3.7l7.4-.7h.8c3.3 0 6.2 1.6 8 4.3v-.1a9.2 9.2 0 0 1 8.3-3.5l8.1 1a9 9 0 0 1 7.6 5.7v-.2a9.2 9.2 0 0 1 8.7-3.3l8.5 1.4c3.4.5 6.3 2.9 7.4 6.1l.7 2.1a9.1 9.1 0 0 1 7.2-3.4c1 0 2 .2 3 .5l9 3c2.8 1 4.9 3 5.8 5.7l62.5 172a9 9 0 0 1-.8 8M437 522.8L310.7 415.3a11 11 0 0 1 14.2-16.7l128 108.7z"/>
    <path d="M649.4 688.3a11 11 0 0 1-15.5 1.2l-61.2-52 6.2-4.4c3-2.3 4.4-6.3 3.5-10l.3.1c2.1.4 4.1.1 6-.8l35.8 30.5c-8.8 11.7 1.1 20 4.2 22.6 4.9 4 10.5 7.9 14 4.4 3.6-3.5-5.2-8.3-8.3-14.5-1-2-.3-2.9 1.4-3l12.3 10.4a11 11 0 0 1 1.3 15.5"/>
  </g>
</svg>
